<svg width="492" height="437" viewBox="0 0 492 437" fill="none" xmlns="http://www.w3.org/2000/svg">
<path d="M15.3096 144.722C15.3096 144.722 1.15028 106.029 34.6903 81.0934C68.2304 56.1576 103.068 79.7973 115.915 106.206L117.036 108.165C117.036 108.165 143.673 100.727 120.576 112.171L112.006 117.105L126.254 126.031L139.013 123.424V124.956L134.824 126.915L135.797 146.165C135.797 146.165 153.688 149.656 138.452 151.055L139.145 174.636L102.11 191.795C102.11 191.795 74.8676 181.603 52.7878 183.561C52.8173 183.561 24.6312 169.79 15.3096 144.722Z" stroke="white" stroke-width="2" stroke-miterlimit="10" stroke-linecap="round"/>
<path d="M102.138 191.795C102.138 191.795 68.8783 196.258 62.4476 223.889C56.0169 251.52 71.6659 255.983 71.6659 255.983C71.6659 255.983 99.8962 237.557 135.383 225.568C170.87 213.564 201.062 193.754 215.59 181.47C230.118 169.186 249.41 161.38 249.41 161.38C249.41 161.38 248.009 135.708 232.08 139.891C216.151 144.074 139.159 174.636 139.159 174.636" stroke="white" stroke-width="2" stroke-miterlimit="10" stroke-linecap="round"/>
<path d="M84.2769 197.701C84.2769 197.701 12.1525 196.537 1.81321 251.8C-8.52609 307.062 83.1412 343.899 83.1412 343.899L241.746 433" stroke="white" stroke-width="2" stroke-miterlimit="10" stroke-linecap="round"/>
<path d="M15.309 144.722L42.61 127.887L46.3859 136.297L20.3238 154.752" stroke="white" stroke-width="2" stroke-miterlimit="10" stroke-linecap="round"/>
<path d="M41.0023 140.112C41.0023 140.112 44.9846 151.202 68.4656 154.752L133.717 125.648L122.212 157.639L124.351 181.499" stroke="white" stroke-width="2" stroke-miterlimit="10" stroke-linecap="round"/>
<path d="M38.0531 173.929L68.4663 154.752" stroke="white" stroke-width="2" stroke-miterlimit="10" stroke-linecap="round"/>
<path d="M64.3949 183.502L66.7695 155.827" stroke="white" stroke-width="2" stroke-miterlimit="10" stroke-linecap="round"/>
<path d="M45.3539 145.62C45.3539 145.62 73.8054 120.346 117.036 108.15" stroke="white" stroke-width="2" stroke-miterlimit="10" stroke-linecap="round"/>
<path d="M105.428 137.564C106.048 137.284 121.829 159.996 138.998 168.921" stroke="white" stroke-width="2" stroke-miterlimit="10" stroke-linecap="round"/>
<path d="M49.4828 166.712L83.8783 173.178L63.5389 183.458" stroke="white" stroke-width="2" stroke-miterlimit="10" stroke-linecap="round"/>
<path d="M83.8793 173.178L138.467 151.04" stroke="white" stroke-width="2" stroke-miterlimit="10" stroke-linecap="round"/>
<path d="M33.5687 303.601C33.5687 303.601 35.3387 280.536 71.6663 255.968L69.4244 324.059" stroke="white" stroke-width="2" stroke-miterlimit="10" stroke-linecap="round"/>
<path d="M69.4398 355.608C69.4398 355.608 70.5608 414.214 74.7496 431.8" stroke="white" stroke-width="2" stroke-miterlimit="10" stroke-linecap="round"/>
<path d="M241.246 433C241.246 433 112.463 409.736 73.348 435.688" stroke="white" stroke-width="2" stroke-miterlimit="10" stroke-linecap="round"/>
<path d="M192.243 198.246L206.372 216.156C206.372 216.156 216.52 212.989 229.19 228.72" stroke="white" stroke-width="2" stroke-miterlimit="10" stroke-linecap="round"/>
<path d="M259.47 154.752L245.222 168.921C220.635 194.24 231.992 212.533 231.992 212.533L225.93 246.306" stroke="white" stroke-width="2" stroke-miterlimit="10" stroke-linecap="round"/>
<path d="M231.993 212.533C231.993 212.533 247.833 224.905 261.064 210.957V205.743L267.391 206.671C267.391 206.671 267.952 222.666 280.252 204.432C280.252 204.432 300.562 208.556 307.273 168.906C307.273 168.906 317.052 171.69 329.073 156.063L326.787 150.348L334.663 147.682C334.663 147.682 343.601 132.615 490.328 46.6576C490.328 46.6576 491.449 22.2373 474.959 2C474.959 2 401.182 26.8327 313.704 104.704L299.589 102.612C299.589 102.612 275.415 80.8431 272.199 100.373C272.199 100.373 249.707 93.1121 266.477 119.344L239.352 140.171" stroke="white" stroke-width="2" stroke-miterlimit="10" stroke-linecap="round"/>
<path d="M261.048 210.957C261.048 210.957 268.688 275.336 248.186 281.655C227.685 287.974 201.977 262.684 201.977 262.684C201.977 262.684 186.328 248.736 184.469 228.735" stroke="white" stroke-width="2" stroke-miterlimit="10" stroke-linecap="round"/>
<path d="M206.371 216.156C206.371 216.156 190.206 223.285 187.256 240.562" stroke="white" stroke-width="2" stroke-miterlimit="10" stroke-linecap="round"/>
<path d="M242.7 171.616C242.7 171.616 251.225 192.958 260.871 181.485L271.077 167.787" stroke="white" stroke-width="2" stroke-miterlimit="10" stroke-linecap="round"/>
<path d="M231.698 189.011C231.698 189.011 236.093 201.28 261.049 205.743" stroke="white" stroke-width="2" stroke-miterlimit="10" stroke-linecap="round"/>
<path d="M264.368 199.748C264.368 199.748 269.722 204.255 280.253 204.447" stroke="white" stroke-width="2" stroke-miterlimit="10" stroke-linecap="round"/>
<path d="M269.705 202.562C269.705 202.562 287.404 167.433 256.873 153.235C256.873 153.235 251.917 148.389 256.873 143.367C261.829 138.344 268.953 143.367 268.953 143.367C268.953 143.367 301.032 157.83 285.044 204.211" stroke="white" stroke-width="2" stroke-miterlimit="10" stroke-linecap="round"/>
<path d="M259.469 141.643C259.469 141.643 249.823 134.294 265.192 134.161C280.561 134.029 310.133 159.45 292.626 200.529" stroke="white" stroke-width="2" stroke-miterlimit="10" stroke-linecap="round"/>
<path d="M266.313 134.161C266.313 134.161 266.785 125.928 280.236 131.157C293.688 136.385 310.03 150.613 303.467 183.827" stroke="white" stroke-width="2" stroke-miterlimit="10" stroke-linecap="round"/>
<path d="M279.072 130.729C279.072 130.729 275.4 123.232 284.441 123.512C293.482 123.792 315.09 138.374 307.258 168.921" stroke="white" stroke-width="2" stroke-miterlimit="10" stroke-linecap="round"/>
<path d="M266.461 119.373L275.783 113.276C275.783 113.276 303.099 104.925 308.172 148.448" stroke="white" stroke-width="2" stroke-miterlimit="10" stroke-linecap="round"/>
<path d="M308.717 152.16C308.717 152.16 328.304 153.088 312.095 121.642" stroke="white" stroke-width="2" stroke-miterlimit="10" stroke-linecap="round"/>
<path d="M299.573 102.627C299.573 102.627 329.057 114.204 326.254 149.096" stroke="white" stroke-width="2" stroke-miterlimit="10" stroke-linecap="round"/>
<path d="M272.185 100.388C272.185 100.388 271.595 111.847 273.866 114.513" stroke="white" stroke-width="2" stroke-miterlimit="10" stroke-linecap="round"/>
<path d="M313.688 104.718C313.688 104.718 340.989 104.527 334.647 147.697" stroke="white" stroke-width="2" stroke-miterlimit="10" stroke-linecap="round"/>
<path d="M328.04 111.494L325.709 98.5764C325.709 98.5764 403.335 52.0483 476.094 3.48755" stroke="white" stroke-width="2" stroke-miterlimit="10" stroke-linecap="round"/>
</svg>
